<svg xmlns="http://www.w3.org/2000/svg" version="1.1" viewBox="-5.0 -10.0 110.0 135.0">
 <path d="m72.445 24.492c-3.418-2.1367-8.5938-2.3125-10.738 2.6758v-0.003907c-0.83594 2.0078-2.0156 3.8516-3.4844 5.4531 2.0742 2.4219 6.8242 1.3789 7.7812 5.2227-1.6992-2.5859-8.3984-1.1914-10.914-4.9297-2.3203-4.2695-5.4961-6.8594-10.504-7.1406-7.4492-0.50391-14.223-1.5547-17.789-5.1406l0.003906 0.003906c-0.21484-0.21484-0.55078-0.24609-0.80078-0.078124-0.24609 0.16797-0.34375 0.48828-0.23047 0.76562 1.4023 3.3359 4.4883 5.3203 9.1211 6.0742-4.8711 0.32031-9.4258-0.015625-13.242-1.8906-0.28125-0.14062-0.62109-0.054687-0.80469 0.19922-0.17969 0.25781-0.14453 0.60938 0.085938 0.82422 3.3398 3.2188 7.0078 3.9102 10.828 3.3594-4.2695 1.0508-8.4414 1.2344-12.387-0.4375v0.003906c-0.28516-0.11719-0.61328-0.007813-0.77734 0.25781-0.16016 0.26172-0.10547 0.60156 0.125 0.80469 2.5312 2.207 7.0781 3.2227 12.688 3.6133h0.003906c-3.8672 1.3828-8.0742 1.4961-12.008 0.32031-0.28906-0.089844-0.59766 0.039062-0.74219 0.30469-0.14453 0.26562-0.078125 0.59375 0.15625 0.78906 4.3203 3.4648 9.3789 3.3555 14.629 2.3008h-0.003906c-2.2812 1.3516-4.8398 2.1758-7.4805 2.4023-0.27344 0.027344-0.49609 0.23047-0.55078 0.49609-0.058594 0.26953 0.066406 0.54297 0.30078 0.67969 4.25 2.4648 9.3555 0.60938 14.641-2.1289-2.4102 2-5.0742 3.6719-7.9297 4.9688-0.21875 0.09375-0.36719 0.30469-0.38281 0.54297-0.015624 0.23828 0.10547 0.46484 0.3125 0.58203 3.543 2.0078 7.4375-0.60547 11.363-3.7148-1.1836 2.1758-2.7734 4.1016-4.6875 5.668-0.19922 0.16406-0.27734 0.43359-0.19922 0.67969 0.078125 0.24609 0.30078 0.41797 0.55859 0.43359 2.4297 0.089844 5.1328-2.125 7.8672-4.6328-1.2812 2.3594-2.6016 4.4414-4.0586 5.6406v-0.003907c-0.19141 0.15234-0.27734 0.39844-0.22266 0.63281 0.054688 0.23438 0.23828 0.41797 0.47266 0.47266 2.668 0.57031 5.6758-1.9727 8.7266-4.9414-1.0273 3.6211-3.6836 6.5586-7.1836 7.9492-4.8828 9.2539-10.453 17.742-16.961 25.18-0.14844 0.16797-0.16406 0.41406-0.035156 0.59766 0.12891 0.18359 0.36328 0.25781 0.57422 0.17578 4.2188-1.5469 7.8633-4.3438 10.449-8.0195-0.72266 2.4023-2.0938 4.5625-3.957 6.2383-0.16406 0.14062-0.21094 0.37109-0.12109 0.56641 0.085938 0.19531 0.29297 0.30859 0.50781 0.27734 4.0977-0.69141 6.8555-4.3086 9.3164-8.5859-0.30469 2.1328-1.5352 4.2773-3.2188 6.418h-0.003907c-0.125 0.16016-0.13672 0.37891-0.035156 0.55078 0.10547 0.17578 0.30469 0.26562 0.50391 0.23047 4.2148-0.74609 7.4961-5.1719 9.5977-14.227 1.8672-0.40625 3.6953-0.97656 5.4609-1.707 0.33984 2.1445 0.77344 4.0664 1.4492 5.4258 1.5742 0.91016 3.043 1.9883 4.3828 3.2188 0.18359 0.18359 0.23437 0.46094 0.125 0.69531-0.10547 0.23438-0.34766 0.37891-0.60547 0.36328-0.33984-0.027344-0.67578-0.070312-1.0078-0.13672-0.54688-0.10938-1.1094-0.054687-1.625 0.15625-0.75781 0.29688-1.3594 0.89844-1.6602 1.6562-0.03125 0.085938-0.003906 0.18359 0.066406 0.24219 0.070313 0.054687 0.16797 0.0625 0.24609 0.015625 0.66016-0.45312 1.4375-0.69922 2.2383-0.70312 1.5898 0.62891 3.293 0.53516 5.0703 0.078125 1.5625 0.62109 3.2539 0.85938 4.9297 0.69531 0.72266-0.20703 1.2695 0.17578 1.6914 0.96484h0.003906c0.070312 0.14062 0.27734 0.097656 0.28516-0.058594 0.03125-1.0117-0.52344-1.7578-1.5078-2.3125 0.55469-0.38672 1.1562-0.19922 1.793 0.40625h0.003906c0.11328 0.10938 0.29688-0.007812 0.24219-0.15625-0.92188-2.3242-2.6836-1.7656-4.8516-1.7305h0.003906c-1.1562 0.011718-2.2734-0.41797-3.1289-1.1953-1.2422-1.1289-2.418-2.3281-3.5195-3.5938 0.64453-2.4453 1.0547-4.9492 1.2344-7.4727 4.707-3.7734 8.1133-9.6406 9.6133-18.535 0.59375 0.85547 1.2344 0.019532 0.375-1.2734 0.87109 0.55078 1.2617-0.24219 0.25781-1.6211-0.72656-1.2383-0.92578-2.7109-0.5625-4.0977 0.58984-2.1797 2.3984-3.8164 4.6289-4.1836 1.4844-0.22266 2.9219-0.67969 4.2617-1.3594-1.0938-2.8203-4.6367-3.0078-9.0547-2.2617zm-4.2969 3.0703c0.35156 0.35156 0.87891 0.45703 1.3359 0.27344-0.32031 0.37109-0.78906 0.58594-1.2812 0.58203-0.95703 0-1.7305-0.77734-1.7305-1.7344 0-0.95312 0.77344-1.7305 1.7305-1.7344 0.49219-0.003907 0.96094 0.21094 1.2812 0.58594-0.54688-0.21875-1.1719-0.023437-1.4961 0.46875-0.32422 0.49219-0.25781 1.1445 0.16016 1.5586z"/>
<text x="0.0" y="117.5" font-size="5.0" font-weight="bold" font-family="Arbeit Regular, Helvetica, Arial-Unicode, Arial, Sans-serif" fill="#ffffff">Created by Md Moniruzzaman</text><text x="0.0" y="122.5" font-size="5.0" font-weight="bold" font-family="Arbeit Regular, Helvetica, Arial-Unicode, Arial, Sans-serif" fill="#000000">from Noun Project</text></svg>